<svg xmlns="http://www.w3.org/2000/svg" xmlns:xlink="http://www.w3.org/1999/xlink" width="627" zoomAndPan="magnify" viewBox="0 0 470.25 259.499997" height="346" preserveAspectRatio="xMidYMid meet" version="1.0"><defs><g/></defs><g fill="#000000" fill-opacity="1"><g transform="translate(24.529943, 82.434578)"><g><path d="M 16.4375 -33.921875 L 16.4375 0 L 3.96875 0 L 3.96875 -54.671875 L 16.4375 -54.671875 L 38.171875 -20.734375 L 38.296875 -20.734375 L 38.296875 -54.671875 L 50.765625 -54.671875 L 50.765625 0 L 38.296875 0 L 16.5625 -33.921875 Z M 16.4375 -33.921875 "/></g></g></g><g fill="#000000" fill-opacity="1"><g transform="translate(75.9522, 82.434578)"><g><path d="M 6.296875 -4.203125 C 3.117188 -7.671875 1.53125 -11.921875 1.53125 -16.953125 C 1.53125 -21.992188 3.117188 -26.257812 6.296875 -29.75 C 9.472656 -33.238281 13.515625 -34.984375 18.421875 -34.984375 C 22.929688 -34.984375 26.640625 -33.570312 29.546875 -30.75 L 29.546875 -34 L 41.28125 -34 L 41.28125 0 L 29.6875 0 L 29.6875 -3.84375 L 29.546875 -3.84375 C 26.640625 -0.613281 22.929688 1 18.421875 1 C 13.515625 1 9.472656 -0.734375 6.296875 -4.203125 Z M 16.265625 -22.71875 C 14.742188 -21.21875 13.984375 -19.296875 13.984375 -16.953125 C 13.984375 -14.617188 14.710938 -12.710938 16.171875 -11.234375 C 17.628906 -9.753906 19.550781 -9.015625 21.9375 -9.015625 C 24.226562 -9.015625 26.113281 -9.765625 27.59375 -11.265625 C 29.070312 -12.765625 29.8125 -14.664062 29.8125 -16.96875 C 29.8125 -19.300781 29.050781 -21.21875 27.53125 -22.71875 C 26.007812 -24.226562 24.144531 -24.984375 21.9375 -24.984375 C 19.675781 -24.984375 17.785156 -24.226562 16.265625 -22.71875 Z M 16.265625 -22.71875 "/></g></g></g><g fill="#000000" fill-opacity="1"><g transform="translate(117.898446, 82.434578)"><g><path d="M 3.96875 0 L 3.96875 -34 L 15.703125 -34 L 15.703125 -29.09375 L 15.84375 -29.09375 C 15.925781 -29.269531 16.066406 -29.488281 16.265625 -29.75 C 16.460938 -30.019531 16.890625 -30.484375 17.546875 -31.140625 C 18.210938 -31.804688 18.921875 -32.40625 19.671875 -32.9375 C 20.429688 -33.46875 21.40625 -33.941406 22.59375 -34.359375 C 23.789062 -34.773438 25.003906 -34.984375 26.234375 -34.984375 C 27.515625 -34.984375 28.773438 -34.804688 30.015625 -34.453125 C 31.253906 -34.097656 32.160156 -33.742188 32.734375 -33.390625 L 33.65625 -32.875 L 28.765625 -22.921875 C 27.304688 -24.160156 25.269531 -24.78125 22.65625 -24.78125 C 21.25 -24.78125 20.035156 -24.46875 19.015625 -23.84375 C 18.003906 -23.226562 17.285156 -22.476562 16.859375 -21.59375 C 16.441406 -20.71875 16.144531 -19.96875 15.96875 -19.34375 C 15.789062 -18.726562 15.703125 -18.242188 15.703125 -17.890625 L 15.703125 0 Z M 3.96875 0 "/></g></g></g><g fill="#000000" fill-opacity="1"><g transform="translate(147.585526, 82.434578)"><g><path d="M 5.96875 -34 L 5.96875 -46.65625 L 17.6875 -46.65625 L 17.6875 -34 L 24.84375 -34 L 24.84375 -25.046875 L 17.6875 -25.046875 L 17.6875 -14.25 C 17.6875 -11.113281 18.570312 -9.546875 20.34375 -9.546875 C 20.78125 -9.546875 21.242188 -9.632812 21.734375 -9.8125 C 22.222656 -9.988281 22.597656 -10.164062 22.859375 -10.34375 L 23.265625 -10.609375 L 26.171875 -1.125 C 23.648438 0.289062 20.78125 1 17.5625 1 C 15.351562 1 13.453125 0.613281 11.859375 -0.15625 C 10.265625 -0.9375 9.0625 -1.976562 8.25 -3.28125 C 7.4375 -4.582031 6.851562 -5.953125 6.5 -7.390625 C 6.144531 -8.828125 5.96875 -10.363281 5.96875 -12 L 5.96875 -25.046875 L 1.0625 -25.046875 L 1.0625 -34 Z M 5.96875 -34 "/></g></g></g><g fill="#000000" fill-opacity="1"><g transform="translate(170.447229, 82.434578)"><g><path d="M 5.09375 -52.9375 C 6.46875 -54.3125 8.101562 -55 10 -55 C 11.90625 -55 13.539062 -54.3125 14.90625 -52.9375 C 16.28125 -51.570312 16.96875 -49.9375 16.96875 -48.03125 C 16.96875 -46.132812 16.28125 -44.5 14.90625 -43.125 C 13.539062 -41.757812 11.90625 -41.078125 10 -41.078125 C 8.101562 -41.078125 6.46875 -41.757812 5.09375 -43.125 C 3.726562 -44.5 3.046875 -46.132812 3.046875 -48.03125 C 3.046875 -49.9375 3.726562 -51.570312 5.09375 -52.9375 Z M 3.96875 -34 L 3.96875 0 L 15.703125 0 L 15.703125 -34 Z M 3.96875 -34 "/></g></g></g><g fill="#000000" fill-opacity="1"><g transform="translate(187.146209, 82.434578)"><g><path d="M 6.296875 -4.203125 C 3.117188 -7.671875 1.53125 -11.921875 1.53125 -16.953125 C 1.53125 -21.992188 3.117188 -26.257812 6.296875 -29.75 C 9.472656 -33.238281 13.515625 -34.984375 18.421875 -34.984375 C 22.929688 -34.984375 26.640625 -33.570312 29.546875 -30.75 L 29.546875 -34 L 41.28125 -34 L 41.28125 0 L 29.6875 0 L 29.6875 -3.84375 L 29.546875 -3.84375 C 26.640625 -0.613281 22.929688 1 18.421875 1 C 13.515625 1 9.472656 -0.734375 6.296875 -4.203125 Z M 16.265625 -22.71875 C 14.742188 -21.21875 13.984375 -19.296875 13.984375 -16.953125 C 13.984375 -14.617188 14.710938 -12.710938 16.171875 -11.234375 C 17.628906 -9.753906 19.550781 -9.015625 21.9375 -9.015625 C 24.226562 -9.015625 26.113281 -9.765625 27.59375 -11.265625 C 29.070312 -12.765625 29.8125 -14.664062 29.8125 -16.96875 C 29.8125 -19.300781 29.050781 -21.21875 27.53125 -22.71875 C 26.007812 -24.226562 24.144531 -24.984375 21.9375 -24.984375 C 19.675781 -24.984375 17.785156 -24.226562 16.265625 -22.71875 Z M 16.265625 -22.71875 "/></g></g></g><g fill="#000000" fill-opacity="1"><g transform="translate(229.092448, 82.434578)"><g><path d="M 3.96875 0 L 3.96875 -34 L 15.703125 -34 L 15.703125 -30.421875 L 15.84375 -30.421875 C 18.882812 -33.460938 22.128906 -34.984375 25.578125 -34.984375 C 27.253906 -34.984375 28.921875 -34.757812 30.578125 -34.3125 C 32.234375 -33.875 33.820312 -33.191406 35.34375 -32.265625 C 36.875 -31.335938 38.113281 -30.023438 39.0625 -28.328125 C 40.007812 -26.628906 40.484375 -24.648438 40.484375 -22.390625 L 40.484375 0 L 28.765625 0 L 28.765625 -19.21875 C 28.765625 -20.988281 28.195312 -22.535156 27.0625 -23.859375 C 25.9375 -25.179688 24.46875 -25.84375 22.65625 -25.84375 C 20.894531 -25.84375 19.296875 -25.15625 17.859375 -23.78125 C 16.421875 -22.414062 15.703125 -20.894531 15.703125 -19.21875 L 15.703125 0 Z M 3.96875 0 "/></g></g></g><g fill="#000000" fill-opacity="1"><g transform="translate(24.529943, 145.38703)"><g/></g></g><g fill="#000000" fill-opacity="1"><g transform="translate(39.307218, 145.38703)"><g/></g></g><g fill="#000000" fill-opacity="1"><g transform="translate(54.084493, 145.38703)"><g/></g></g><g fill="#000000" fill-opacity="1"><g transform="translate(68.861768, 145.38703)"><g/></g></g><g fill="#000000" fill-opacity="1"><g transform="translate(83.639043, 145.38703)"><g/></g></g><g fill="#000000" fill-opacity="1"><g transform="translate(98.420679, 145.38703)"><g><path d="M 0.53125 -43.734375 L 0.53125 -54.671875 L 38.96875 -54.671875 L 38.96875 -43.734375 L 25.96875 -43.734375 L 25.96875 0 L 13.515625 0 L 13.515625 -43.734375 Z M 0.53125 -43.734375 "/></g></g></g><g fill="#000000" fill-opacity="1"><g transform="translate(134.601803, 145.38703)"><g><path d="M 6.296875 -4.203125 C 3.117188 -7.671875 1.53125 -11.921875 1.53125 -16.953125 C 1.53125 -21.992188 3.117188 -26.257812 6.296875 -29.75 C 9.472656 -33.238281 13.515625 -34.984375 18.421875 -34.984375 C 22.929688 -34.984375 26.640625 -33.570312 29.546875 -30.75 L 29.546875 -34 L 41.28125 -34 L 41.28125 0 L 29.6875 0 L 29.6875 -3.84375 L 29.546875 -3.84375 C 26.640625 -0.613281 22.929688 1 18.421875 1 C 13.515625 1 9.472656 -0.734375 6.296875 -4.203125 Z M 16.265625 -22.71875 C 14.742188 -21.21875 13.984375 -19.296875 13.984375 -16.953125 C 13.984375 -14.617188 14.710938 -12.710938 16.171875 -11.234375 C 17.628906 -9.753906 19.550781 -9.015625 21.9375 -9.015625 C 24.226562 -9.015625 26.113281 -9.765625 27.59375 -11.265625 C 29.070312 -12.765625 29.8125 -14.664062 29.8125 -16.96875 C 29.8125 -19.300781 29.050781 -21.21875 27.53125 -22.71875 C 26.007812 -24.226562 24.144531 -24.984375 21.9375 -24.984375 C 19.675781 -24.984375 17.785156 -24.226562 16.265625 -22.71875 Z M 16.265625 -22.71875 "/></g></g></g><g fill="#000000" fill-opacity="1"><g transform="translate(176.548049, 145.38703)"><g><path d="M 18.75 -34.984375 C 20.695312 -34.984375 22.617188 -34.757812 24.515625 -34.3125 C 26.421875 -33.875 27.835938 -33.4375 28.765625 -33 L 30.15625 -32.34375 L 26.3125 -24.65625 C 23.65625 -26.0625 21.132812 -26.765625 18.75 -26.765625 C 17.425781 -26.765625 16.488281 -26.617188 15.9375 -26.328125 C 15.382812 -26.046875 15.109375 -25.507812 15.109375 -24.71875 C 15.109375 -24.539062 15.128906 -24.363281 15.171875 -24.1875 C 15.210938 -24.007812 15.300781 -23.84375 15.4375 -23.6875 C 15.570312 -23.53125 15.691406 -23.394531 15.796875 -23.28125 C 15.910156 -23.175781 16.097656 -23.054688 16.359375 -22.921875 C 16.628906 -22.796875 16.84375 -22.695312 17 -22.625 C 17.15625 -22.5625 17.410156 -22.460938 17.765625 -22.328125 C 18.117188 -22.191406 18.378906 -22.09375 18.546875 -22.03125 C 18.722656 -21.96875 19.019531 -21.867188 19.4375 -21.734375 C 19.863281 -21.597656 20.1875 -21.507812 20.40625 -21.46875 C 21.78125 -21.070312 22.972656 -20.628906 23.984375 -20.140625 C 25.003906 -19.660156 26.078125 -19 27.203125 -18.15625 C 28.328125 -17.3125 29.195312 -16.25 29.8125 -14.96875 C 30.4375 -13.6875 30.75 -12.234375 30.75 -10.609375 C 30.75 -2.867188 25.378906 1 14.640625 1 C 12.210938 1 9.90625 0.625 7.71875 -0.125 C 5.53125 -0.882812 3.953125 -1.640625 2.984375 -2.390625 L 1.53125 -3.578125 L 6.296875 -11.59375 C 6.648438 -11.28125 7.113281 -10.914062 7.6875 -10.5 C 8.257812 -10.082031 9.296875 -9.507812 10.796875 -8.78125 C 12.296875 -8.050781 13.601562 -7.6875 14.71875 -7.6875 C 17.144531 -7.6875 18.359375 -8.503906 18.359375 -10.140625 C 18.359375 -10.890625 18.046875 -11.472656 17.421875 -11.890625 C 16.804688 -12.316406 15.757812 -12.789062 14.28125 -13.3125 C 12.800781 -13.84375 11.640625 -14.332031 10.796875 -14.78125 C 8.679688 -15.882812 7.003906 -17.128906 5.765625 -18.515625 C 4.523438 -19.910156 3.90625 -21.753906 3.90625 -24.046875 C 3.90625 -27.492188 5.238281 -30.175781 7.90625 -32.09375 C 10.582031 -34.019531 14.195312 -34.984375 18.75 -34.984375 Z M 18.75 -34.984375 "/></g></g></g><g fill="#000000" fill-opacity="1"><g transform="translate(205.83753, 145.38703)"><g><path d="M 42.8125 -34 L 26.640625 -17.765625 L 44.390625 0 L 29.296875 0 L 15.703125 -13.578125 L 15.703125 0 L 3.96875 0 L 3.96875 -56.984375 L 15.703125 -56.984375 L 15.703125 -22.125 L 27.5625 -34 Z M 42.8125 -34 "/></g></g></g><g fill="#000000" fill-opacity="1"><g transform="translate(24.529943, 208.339482)"><g/></g></g><g fill="#000000" fill-opacity="1"><g transform="translate(39.307218, 208.339482)"><g/></g></g><g fill="#000000" fill-opacity="1"><g transform="translate(54.084493, 208.339482)"><g/></g></g><g fill="#000000" fill-opacity="1"><g transform="translate(68.861768, 208.339482)"><g/></g></g><g fill="#000000" fill-opacity="1"><g transform="translate(83.639043, 208.339482)"><g/></g></g><g fill="#000000" fill-opacity="1"><g transform="translate(98.416318, 208.339482)"><g/></g></g><g fill="#000000" fill-opacity="1"><g transform="translate(113.193593, 208.339482)"><g/></g></g><g fill="#000000" fill-opacity="1"><g transform="translate(127.970868, 208.339482)"><g/></g></g><g fill="#000000" fill-opacity="1"><g transform="translate(142.748142, 208.339482)"><g/></g></g><g fill="#000000" fill-opacity="1"><g transform="translate(157.527354, 208.339482)"><g><path d="M 24.125 -55.65625 C 27.082031 -55.65625 29.972656 -55.222656 32.796875 -54.359375 C 35.628906 -53.503906 37.726562 -52.65625 39.09375 -51.8125 L 41.078125 -50.5 L 36.046875 -40.546875 C 35.648438 -40.816406 35.097656 -41.160156 34.390625 -41.578125 C 33.679688 -42.003906 32.351562 -42.566406 30.40625 -43.265625 C 28.46875 -43.972656 26.660156 -44.328125 24.984375 -44.328125 C 22.910156 -44.328125 21.304688 -43.882812 20.171875 -43 C 19.046875 -42.125 18.484375 -40.929688 18.484375 -39.421875 C 18.484375 -38.671875 18.75 -37.972656 19.28125 -37.328125 C 19.8125 -36.691406 20.71875 -36.007812 22 -35.28125 C 23.28125 -34.550781 24.40625 -33.96875 25.375 -33.53125 C 26.351562 -33.09375 27.859375 -32.429688 29.890625 -31.546875 C 33.421875 -30.046875 36.429688 -28 38.921875 -25.40625 C 41.421875 -22.820312 42.671875 -19.894531 42.671875 -16.625 C 42.671875 -13.488281 42.109375 -10.75 40.984375 -8.40625 C 39.859375 -6.070312 38.3125 -4.238281 36.34375 -2.90625 C 34.375 -1.582031 32.195312 -0.601562 29.8125 0.03125 C 27.425781 0.675781 24.84375 1 22.0625 1 C 19.675781 1 17.332031 0.753906 15.03125 0.265625 C 12.738281 -0.222656 10.816406 -0.832031 9.265625 -1.5625 C 7.722656 -2.289062 6.332031 -3.003906 5.09375 -3.703125 C 3.863281 -4.410156 2.960938 -5.007812 2.390625 -5.5 L 1.53125 -6.234375 L 7.75 -16.703125 C 8.28125 -16.253906 9.007812 -15.6875 9.9375 -15 C 10.863281 -14.320312 12.507812 -13.40625 14.875 -12.25 C 17.238281 -11.101562 19.328125 -10.53125 21.140625 -10.53125 C 26.398438 -10.53125 29.03125 -12.320312 29.03125 -15.90625 C 29.03125 -16.65625 28.835938 -17.347656 28.453125 -17.984375 C 28.078125 -18.628906 27.414062 -19.269531 26.46875 -19.90625 C 25.519531 -20.550781 24.679688 -21.0625 23.953125 -21.4375 C 23.222656 -21.8125 22.03125 -22.382812 20.375 -23.15625 C 18.71875 -23.925781 17.492188 -24.515625 16.703125 -24.921875 C 13.390625 -26.554688 10.828125 -28.597656 9.015625 -31.046875 C 7.203125 -33.492188 6.296875 -36.132812 6.296875 -38.96875 C 6.296875 -43.863281 8.101562 -47.867188 11.71875 -50.984375 C 15.34375 -54.097656 19.476562 -55.65625 24.125 -55.65625 Z M 24.125 -55.65625 "/></g></g></g><g fill="#000000" fill-opacity="1"><g transform="translate(198.744681, 208.339482)"><g><path d="M 29.75 -34 L 43.265625 -34 L 16.5625 17.234375 L 3.046875 17.234375 L 14.78125 -5.296875 L -1.328125 -34 L 12.1875 -34 L 21.671875 -16.5625 Z M 29.75 -34 "/></g></g></g><g fill="#000000" fill-opacity="1"><g transform="translate(237.37764, 208.339482)"><g><path d="M 18.75 -34.984375 C 20.695312 -34.984375 22.617188 -34.757812 24.515625 -34.3125 C 26.421875 -33.875 27.835938 -33.4375 28.765625 -33 L 30.15625 -32.34375 L 26.3125 -24.65625 C 23.65625 -26.0625 21.132812 -26.765625 18.75 -26.765625 C 17.425781 -26.765625 16.488281 -26.617188 15.9375 -26.328125 C 15.382812 -26.046875 15.109375 -25.507812 15.109375 -24.71875 C 15.109375 -24.539062 15.128906 -24.363281 15.171875 -24.1875 C 15.210938 -24.007812 15.300781 -23.84375 15.4375 -23.6875 C 15.570312 -23.53125 15.691406 -23.394531 15.796875 -23.28125 C 15.910156 -23.175781 16.097656 -23.054688 16.359375 -22.921875 C 16.628906 -22.796875 16.84375 -22.695312 17 -22.625 C 17.15625 -22.5625 17.410156 -22.460938 17.765625 -22.328125 C 18.117188 -22.191406 18.378906 -22.09375 18.546875 -22.03125 C 18.722656 -21.96875 19.019531 -21.867188 19.4375 -21.734375 C 19.863281 -21.597656 20.1875 -21.507812 20.40625 -21.46875 C 21.78125 -21.070312 22.972656 -20.628906 23.984375 -20.140625 C 25.003906 -19.660156 26.078125 -19 27.203125 -18.15625 C 28.328125 -17.3125 29.195312 -16.25 29.8125 -14.96875 C 30.4375 -13.6875 30.75 -12.234375 30.75 -10.609375 C 30.75 -2.867188 25.378906 1 14.640625 1 C 12.210938 1 9.90625 0.625 7.71875 -0.125 C 5.53125 -0.882812 3.953125 -1.640625 2.984375 -2.390625 L 1.53125 -3.578125 L 6.296875 -11.59375 C 6.648438 -11.28125 7.113281 -10.914062 7.6875 -10.5 C 8.257812 -10.082031 9.296875 -9.507812 10.796875 -8.78125 C 12.296875 -8.050781 13.601562 -7.6875 14.71875 -7.6875 C 17.144531 -7.6875 18.359375 -8.503906 18.359375 -10.140625 C 18.359375 -10.890625 18.046875 -11.472656 17.421875 -11.890625 C 16.804688 -12.316406 15.757812 -12.789062 14.28125 -13.3125 C 12.800781 -13.84375 11.640625 -14.332031 10.796875 -14.78125 C 8.679688 -15.882812 7.003906 -17.128906 5.765625 -18.515625 C 4.523438 -19.910156 3.90625 -21.753906 3.90625 -24.046875 C 3.90625 -27.492188 5.238281 -30.175781 7.90625 -32.09375 C 10.582031 -34.019531 14.195312 -34.984375 18.75 -34.984375 Z M 18.75 -34.984375 "/></g></g></g><g fill="#000000" fill-opacity="1"><g transform="translate(266.667121, 208.339482)"><g><path d="M 5.96875 -34 L 5.96875 -46.65625 L 17.6875 -46.65625 L 17.6875 -34 L 24.84375 -34 L 24.84375 -25.046875 L 17.6875 -25.046875 L 17.6875 -14.25 C 17.6875 -11.113281 18.570312 -9.546875 20.34375 -9.546875 C 20.78125 -9.546875 21.242188 -9.632812 21.734375 -9.8125 C 22.222656 -9.988281 22.597656 -10.164062 22.859375 -10.34375 L 23.265625 -10.609375 L 26.171875 -1.125 C 23.648438 0.289062 20.78125 1 17.5625 1 C 15.351562 1 13.453125 0.613281 11.859375 -0.15625 C 10.265625 -0.9375 9.0625 -1.976562 8.25 -3.28125 C 7.4375 -4.582031 6.851562 -5.953125 6.5 -7.390625 C 6.144531 -8.828125 5.96875 -10.363281 5.96875 -12 L 5.96875 -25.046875 L 1.0625 -25.046875 L 1.0625 -34 Z M 5.96875 -34 "/></g></g></g><g fill="#000000" fill-opacity="1"><g transform="translate(289.528824, 208.339482)"><g><path d="M 38.375 -15.375 L 13.71875 -15.375 C 13.71875 -12.988281 14.488281 -11.21875 16.03125 -10.0625 C 17.582031 -8.914062 19.265625 -8.34375 21.078125 -8.34375 C 22.972656 -8.34375 24.472656 -8.597656 25.578125 -9.109375 C 26.679688 -9.617188 27.941406 -10.625 29.359375 -12.125 L 37.84375 -7.890625 C 34.300781 -1.960938 28.425781 1 20.21875 1 C 15.09375 1 10.695312 -0.753906 7.03125 -4.265625 C 3.363281 -7.785156 1.53125 -12.019531 1.53125 -16.96875 C 1.53125 -21.914062 3.363281 -26.15625 7.03125 -29.6875 C 10.695312 -33.21875 15.09375 -34.984375 20.21875 -34.984375 C 25.601562 -34.984375 29.984375 -33.425781 33.359375 -30.3125 C 36.742188 -27.195312 38.4375 -22.75 38.4375 -16.96875 C 38.4375 -16.164062 38.414062 -15.632812 38.375 -15.375 Z M 14.046875 -21.875 L 26.96875 -21.875 C 26.707031 -23.632812 26.007812 -24.988281 24.875 -25.9375 C 23.75 -26.894531 22.304688 -27.375 20.546875 -27.375 C 18.597656 -27.375 17.050781 -26.863281 15.90625 -25.84375 C 14.757812 -24.820312 14.140625 -23.5 14.046875 -21.875 Z M 14.046875 -21.875 "/></g></g></g><g fill="#000000" fill-opacity="1"><g transform="translate(326.173798, 208.339482)"><g><path d="M 3.96875 0 L 3.96875 -34 L 15.703125 -34 L 15.703125 -30.421875 L 15.84375 -30.421875 C 18.882812 -33.460938 22.128906 -34.984375 25.578125 -34.984375 C 28.054688 -34.984375 30.375 -34.472656 32.53125 -33.453125 C 34.695312 -32.441406 36.332031 -30.878906 37.4375 -28.765625 C 40.882812 -32.910156 44.640625 -34.984375 48.703125 -34.984375 C 52.328125 -34.984375 55.441406 -33.96875 58.046875 -31.9375 C 60.648438 -29.90625 61.953125 -26.722656 61.953125 -22.390625 L 61.953125 0 L 50.234375 0 L 50.234375 -19.21875 C 50.234375 -21.03125 49.734375 -22.539062 48.734375 -23.75 C 47.742188 -24.96875 46.253906 -25.578125 44.265625 -25.578125 C 42.546875 -25.578125 41.234375 -25.054688 40.328125 -24.015625 C 39.421875 -22.984375 38.921875 -21.738281 38.828125 -20.28125 L 38.828125 0 L 27.109375 0 L 27.109375 -19.21875 C 27.109375 -21.03125 26.609375 -22.539062 25.609375 -23.75 C 24.617188 -24.96875 23.128906 -25.578125 21.140625 -25.578125 C 19.328125 -25.578125 17.96875 -25.015625 17.0625 -23.890625 C 16.15625 -22.765625 15.703125 -21.425781 15.703125 -19.875 L 15.703125 0 Z M 3.96875 0 "/></g></g></g><g fill="#000000" fill-opacity="1"><g transform="translate(24.529943, 251.383657)"><g><path d="M 11.265625 0 L 7.953125 0 C 7.835938 0 7.78125 -0.0546875 7.78125 -0.171875 L 7.78125 -0.921875 C 7.78125 -1.035156 7.835938 -1.09375 7.953125 -1.09375 L 8.984375 -1.09375 L 8.03125 -3.640625 L 3.9375 -3.640625 L 2.984375 -1.09375 L 4 -1.09375 C 4.125 -1.09375 4.1875 -1.035156 4.1875 -0.921875 L 4.1875 -0.171875 C 4.1875 -0.0546875 4.125 0 4 0 L 0.703125 0 C 0.585938 0 0.53125 -0.0546875 0.53125 -0.171875 L 0.53125 -0.921875 C 0.53125 -1.035156 0.585938 -1.09375 0.703125 -1.09375 L 1.6875 -1.09375 L 4.84375 -9.4375 L 4.046875 -9.4375 C 3.921875 -9.4375 3.859375 -9.492188 3.859375 -9.609375 L 3.859375 -10.359375 C 3.859375 -10.472656 3.921875 -10.53125 4.046875 -10.53125 L 6.046875 -10.53125 C 6.273438 -10.53125 6.453125 -10.476562 6.578125 -10.375 C 6.703125 -10.28125 6.804688 -10.125 6.890625 -9.90625 L 10.265625 -1.09375 L 11.265625 -1.09375 C 11.378906 -1.09375 11.4375 -1.035156 11.4375 -0.921875 L 11.4375 -0.171875 C 11.4375 -0.0546875 11.378906 0 11.265625 0 Z M 7.625 -4.65625 L 6 -9.015625 L 5.953125 -9.015625 L 4.3125 -4.65625 Z M 7.625 -4.65625 "/></g></g></g><g fill="#000000" fill-opacity="1"><g transform="translate(37.603656, 251.383657)"><g/></g></g><g fill="#000000" fill-opacity="1"><g transform="translate(42.929988, 251.383657)"><g><path d="M 1.71875 0 L 0.890625 0 C 0.765625 0 0.703125 -0.0546875 0.703125 -0.171875 L 0.703125 -3.609375 C 0.703125 -3.734375 0.765625 -3.796875 0.890625 -3.796875 L 1.8125 -3.796875 C 1.9375 -3.796875 2 -3.734375 2 -3.609375 L 2 -3.296875 C 2 -3.109375 2.109375 -2.859375 2.328125 -2.546875 C 2.554688 -2.242188 2.78125 -1.992188 3 -1.796875 C 3.226562 -1.609375 3.53125 -1.441406 3.90625 -1.296875 C 4.28125 -1.148438 4.691406 -1.078125 5.140625 -1.078125 C 5.890625 -1.078125 6.476562 -1.234375 6.90625 -1.546875 C 7.332031 -1.867188 7.546875 -2.304688 7.546875 -2.859375 C 7.546875 -3.179688 7.425781 -3.457031 7.1875 -3.6875 C 6.945312 -3.914062 6.632812 -4.097656 6.25 -4.234375 C 5.863281 -4.378906 5.4375 -4.507812 4.96875 -4.625 C 4.507812 -4.738281 4.046875 -4.867188 3.578125 -5.015625 C 3.117188 -5.171875 2.695312 -5.351562 2.3125 -5.5625 C 1.9375 -5.78125 1.628906 -6.078125 1.390625 -6.453125 C 1.148438 -6.828125 1.03125 -7.269531 1.03125 -7.78125 C 1.03125 -8.601562 1.335938 -9.28125 1.953125 -9.8125 C 2.578125 -10.351562 3.410156 -10.625 4.453125 -10.625 C 5.773438 -10.625 6.742188 -10.238281 7.359375 -9.46875 L 7.328125 -10.375 C 7.328125 -10.488281 7.394531 -10.546875 7.53125 -10.546875 L 8.34375 -10.546875 C 8.46875 -10.546875 8.53125 -10.488281 8.53125 -10.375 L 8.53125 -7.171875 C 8.53125 -7.054688 8.46875 -7 8.34375 -7 L 7.421875 -7 C 7.304688 -7 7.25 -7.054688 7.25 -7.171875 L 7.25 -7.578125 C 7.25 -7.984375 7.019531 -8.390625 6.5625 -8.796875 C 6.113281 -9.210938 5.457031 -9.421875 4.59375 -9.421875 C 3.945312 -9.421875 3.425781 -9.265625 3.03125 -8.953125 C 2.632812 -8.648438 2.4375 -8.257812 2.4375 -7.78125 C 2.4375 -7.4375 2.554688 -7.140625 2.796875 -6.890625 C 3.046875 -6.648438 3.363281 -6.457031 3.75 -6.3125 C 4.144531 -6.164062 4.578125 -6.03125 5.046875 -5.90625 C 5.515625 -5.78125 5.984375 -5.644531 6.453125 -5.5 C 6.921875 -5.351562 7.347656 -5.175781 7.734375 -4.96875 C 8.128906 -4.769531 8.445312 -4.488281 8.6875 -4.125 C 8.9375 -3.769531 9.0625 -3.347656 9.0625 -2.859375 C 9.0625 -1.992188 8.753906 -1.28125 8.140625 -0.71875 C 7.523438 -0.164062 6.609375 0.109375 5.390625 0.109375 C 4.484375 0.109375 3.738281 -0.0703125 3.15625 -0.4375 C 2.570312 -0.800781 2.144531 -1.191406 1.875 -1.609375 L 1.890625 -0.171875 C 1.890625 -0.0546875 1.832031 0 1.71875 0 Z M 1.71875 0 "/></g></g></g><g fill="#000000" fill-opacity="1"><g transform="translate(53.435916, 251.383657)"><g><path d="M 4.421875 0 L 0.890625 0 C 0.765625 0 0.703125 -0.0546875 0.703125 -0.171875 L 0.703125 -0.921875 C 0.703125 -1.035156 0.765625 -1.09375 0.890625 -1.09375 L 2.015625 -1.09375 L 2.015625 -9.4375 L 0.890625 -9.4375 C 0.765625 -9.4375 0.703125 -9.492188 0.703125 -9.609375 L 0.703125 -10.359375 C 0.703125 -10.472656 0.765625 -10.53125 0.890625 -10.53125 L 4.421875 -10.53125 C 4.546875 -10.53125 4.609375 -10.472656 4.609375 -10.359375 L 4.609375 -9.609375 C 4.609375 -9.492188 4.546875 -9.4375 4.421875 -9.4375 L 3.28125 -9.4375 L 3.28125 -1.09375 L 4.421875 -1.09375 C 4.546875 -1.09375 4.609375 -1.035156 4.609375 -0.921875 L 4.609375 -0.171875 C 4.609375 -0.0546875 4.546875 0 4.421875 0 Z M 4.421875 0 "/></g></g></g><g fill="#000000" fill-opacity="1"><g transform="translate(59.48123, 251.383657)"><g><path d="M 12.609375 0 L 9.21875 0 C 9.09375 0 9.03125 -0.0546875 9.03125 -0.171875 L 9.03125 -0.921875 C 9.03125 -1.035156 9.09375 -1.09375 9.21875 -1.09375 L 10.203125 -1.09375 L 10.203125 -8.40625 L 10.1875 -8.40625 L 7.390625 -1.484375 C 7.273438 -1.191406 7.0625 -1.046875 6.75 -1.046875 C 6.4375 -1.046875 6.222656 -1.191406 6.109375 -1.484375 L 3.3125 -8.40625 L 3.28125 -8.40625 L 3.28125 -1.09375 L 4.265625 -1.09375 C 4.390625 -1.09375 4.453125 -1.035156 4.453125 -0.921875 L 4.453125 -0.171875 C 4.453125 -0.0546875 4.390625 0 4.265625 0 L 0.890625 0 C 0.765625 0 0.703125 -0.0546875 0.703125 -0.171875 L 0.703125 -0.921875 C 0.703125 -1.035156 0.765625 -1.09375 0.890625 -1.09375 L 2.015625 -1.09375 L 2.015625 -9.4375 L 0.890625 -9.4375 C 0.765625 -9.4375 0.703125 -9.492188 0.703125 -9.609375 L 0.703125 -10.359375 C 0.703125 -10.472656 0.765625 -10.53125 0.890625 -10.53125 L 3.15625 -10.53125 C 3.488281 -10.53125 3.71875 -10.363281 3.84375 -10.03125 L 6.03125 -4.75 L 6.71875 -2.90625 L 6.78125 -2.90625 C 7.050781 -3.664062 7.273438 -4.269531 7.453125 -4.71875 L 9.65625 -10.03125 C 9.78125 -10.363281 10.015625 -10.53125 10.359375 -10.53125 L 12.609375 -10.53125 C 12.722656 -10.53125 12.78125 -10.472656 12.78125 -10.359375 L 12.78125 -9.609375 C 12.78125 -9.492188 12.722656 -9.4375 12.609375 -9.4375 L 11.46875 -9.4375 L 11.46875 -1.09375 L 12.609375 -1.09375 C 12.722656 -1.09375 12.78125 -1.035156 12.78125 -0.921875 L 12.78125 -0.171875 C 12.78125 -0.0546875 12.722656 0 12.609375 0 Z M 12.609375 0 "/></g></g></g><g fill="#000000" fill-opacity="1"><g transform="translate(73.699449, 251.383657)"><g><path d="M 4.71875 0 L 0.890625 0 C 0.765625 0 0.703125 -0.0546875 0.703125 -0.171875 L 0.703125 -0.921875 C 0.703125 -1.035156 0.765625 -1.09375 0.890625 -1.09375 L 2.015625 -1.09375 L 2.015625 -9.4375 L 0.890625 -9.4375 C 0.765625 -9.4375 0.703125 -9.492188 0.703125 -9.609375 L 0.703125 -10.359375 C 0.703125 -10.472656 0.765625 -10.53125 0.890625 -10.53125 L 5.40625 -10.53125 C 6.445312 -10.53125 7.296875 -10.226562 7.953125 -9.625 C 8.617188 -9.03125 8.953125 -8.21875 8.953125 -7.1875 C 8.953125 -6.164062 8.628906 -5.375 7.984375 -4.8125 C 7.335938 -4.25 6.425781 -3.96875 5.25 -3.96875 L 3.28125 -3.96875 L 3.28125 -1.09375 L 4.71875 -1.09375 C 4.84375 -1.09375 4.90625 -1.035156 4.90625 -0.921875 L 4.90625 -0.171875 C 4.90625 -0.0546875 4.84375 0 4.71875 0 Z M 3.28125 -5.015625 L 5.1875 -5.015625 C 6.832031 -5.015625 7.65625 -5.738281 7.65625 -7.1875 C 7.65625 -7.9375 7.421875 -8.5 6.953125 -8.875 C 6.492188 -9.25 5.910156 -9.4375 5.203125 -9.4375 L 3.28125 -9.4375 Z M 3.28125 -5.015625 "/></g></g></g><g fill="#000000" fill-opacity="1"><g transform="translate(84.087993, 251.383657)"><g><path d="M 8.921875 0 L 0.890625 0 C 0.765625 0 0.703125 -0.0546875 0.703125 -0.171875 L 0.703125 -0.921875 C 0.703125 -1.035156 0.765625 -1.09375 0.890625 -1.09375 L 2.015625 -1.09375 L 2.015625 -9.4375 L 0.890625 -9.4375 C 0.765625 -9.4375 0.703125 -9.492188 0.703125 -9.609375 L 0.703125 -10.359375 C 0.703125 -10.472656 0.765625 -10.53125 0.890625 -10.53125 L 4.40625 -10.53125 C 4.53125 -10.53125 4.59375 -10.46875 4.59375 -10.34375 L 4.59375 -9.625 C 4.59375 -9.5 4.53125 -9.4375 4.40625 -9.4375 L 3.28125 -9.4375 L 3.28125 -1.09375 L 7.953125 -1.09375 L 7.953125 -2.53125 C 7.953125 -2.65625 8.015625 -2.71875 8.140625 -2.71875 L 8.9375 -2.71875 C 9.050781 -2.71875 9.109375 -2.65625 9.109375 -2.53125 L 9.109375 -0.1875 C 9.109375 -0.0625 9.046875 0 8.921875 0 Z M 8.921875 0 "/></g></g></g><g fill="#000000" fill-opacity="1"><g transform="translate(94.652613, 251.383657)"><g><path d="M 8.6875 0 L 0.890625 0 C 0.765625 0 0.703125 -0.0546875 0.703125 -0.171875 L 0.703125 -0.921875 C 0.703125 -1.035156 0.765625 -1.09375 0.890625 -1.09375 L 2.015625 -1.09375 L 2.015625 -9.4375 L 0.890625 -9.4375 C 0.765625 -9.4375 0.703125 -9.492188 0.703125 -9.609375 L 0.703125 -10.359375 C 0.703125 -10.472656 0.765625 -10.53125 0.890625 -10.53125 L 8.6875 -10.53125 C 8.8125 -10.53125 8.875 -10.472656 8.875 -10.359375 L 8.875 -8 C 8.875 -7.875 8.8125 -7.8125 8.6875 -7.8125 L 7.890625 -7.8125 C 7.773438 -7.8125 7.71875 -7.875 7.71875 -8 L 7.71875 -9.4375 L 3.28125 -9.4375 L 3.28125 -5.796875 L 7 -5.796875 C 7.125 -5.796875 7.1875 -5.738281 7.1875 -5.625 L 7.1875 -4.875 C 7.1875 -4.75 7.125 -4.6875 7 -4.6875 L 3.28125 -4.6875 L 3.28125 -1.09375 L 7.703125 -1.09375 L 7.703125 -2.53125 C 7.703125 -2.65625 7.765625 -2.71875 7.890625 -2.71875 L 8.6875 -2.71875 C 8.8125 -2.71875 8.875 -2.65625 8.875 -2.53125 L 8.875 -0.171875 C 8.875 -0.0546875 8.8125 0 8.6875 0 Z M 8.6875 0 "/></g></g></g><g fill="#000000" fill-opacity="1"><g transform="translate(104.967792, 251.383657)"><g/></g></g><g fill="#000000" fill-opacity="1"><g transform="translate(110.294126, 251.383657)"><g><path d="M 10.21875 -2.65625 C 10.269531 -2.613281 10.296875 -2.566406 10.296875 -2.515625 C 10.296875 -2.460938 10.273438 -2.390625 10.234375 -2.296875 C 10.191406 -2.203125 10.117188 -2.078125 10.015625 -1.921875 C 9.910156 -1.773438 9.722656 -1.566406 9.453125 -1.296875 C 9.191406 -1.035156 8.90625 -0.8125 8.59375 -0.625 C 8.28125 -0.4375 7.867188 -0.265625 7.359375 -0.109375 C 6.847656 0.0351562 6.296875 0.109375 5.703125 0.109375 C 4.273438 0.109375 3.082031 -0.390625 2.125 -1.390625 C 1.175781 -2.390625 0.703125 -3.695312 0.703125 -5.3125 C 0.703125 -6.9375 1.179688 -8.226562 2.140625 -9.1875 C 3.109375 -10.144531 4.273438 -10.625 5.640625 -10.625 C 7.148438 -10.625 8.25 -10.097656 8.9375 -9.046875 L 8.921875 -10.359375 C 8.898438 -10.472656 8.957031 -10.53125 9.09375 -10.53125 L 9.921875 -10.53125 C 10.046875 -10.53125 10.109375 -10.472656 10.109375 -10.359375 L 10.109375 -7.15625 C 10.109375 -7.03125 10.046875 -6.96875 9.921875 -6.96875 L 9 -6.96875 C 8.875 -6.96875 8.8125 -7.03125 8.8125 -7.15625 L 8.8125 -7.296875 C 8.8125 -7.742188 8.503906 -8.207031 7.890625 -8.6875 C 7.285156 -9.175781 6.523438 -9.421875 5.609375 -9.421875 C 4.703125 -9.421875 3.882812 -9.0625 3.15625 -8.34375 C 2.425781 -7.625 2.0625 -6.601562 2.0625 -5.28125 C 2.0625 -3.96875 2.425781 -2.945312 3.15625 -2.21875 C 3.894531 -1.488281 4.757812 -1.125 5.75 -1.125 C 6.8125 -1.125 7.65625 -1.363281 8.28125 -1.84375 C 8.757812 -2.21875 9.109375 -2.597656 9.328125 -2.984375 C 9.410156 -3.128906 9.503906 -3.15625 9.609375 -3.0625 Z M 10.21875 -2.65625 "/></g></g></g><g fill="#000000" fill-opacity="1"><g transform="translate(122.061938, 251.383657)"><g><path d="M 10.921875 -5.3125 C 10.921875 -3.707031 10.4375 -2.398438 9.46875 -1.390625 C 8.507812 -0.390625 7.296875 0.109375 5.828125 0.109375 C 4.367188 0.109375 3.148438 -0.394531 2.171875 -1.40625 C 1.191406 -2.425781 0.703125 -3.734375 0.703125 -5.328125 C 0.703125 -6.929688 1.207031 -8.210938 2.21875 -9.171875 C 3.226562 -10.140625 4.429688 -10.625 5.828125 -10.625 C 7.222656 -10.625 8.421875 -10.140625 9.421875 -9.171875 C 10.421875 -8.210938 10.921875 -6.925781 10.921875 -5.3125 Z M 3.203125 -2.203125 C 3.953125 -1.453125 4.828125 -1.078125 5.828125 -1.078125 C 6.828125 -1.078125 7.695312 -1.453125 8.4375 -2.203125 C 9.175781 -2.953125 9.546875 -3.976562 9.546875 -5.28125 C 9.546875 -6.59375 9.164062 -7.617188 8.40625 -8.359375 C 7.65625 -9.097656 6.796875 -9.46875 5.828125 -9.46875 C 4.859375 -9.46875 3.988281 -9.097656 3.21875 -8.359375 C 2.457031 -7.617188 2.078125 -6.59375 2.078125 -5.28125 C 2.078125 -3.976562 2.453125 -2.953125 3.203125 -2.203125 Z M 3.203125 -2.203125 "/></g></g></g><g fill="#000000" fill-opacity="1"><g transform="translate(134.431347, 251.383657)"><g><path d="M 8.921875 0 L 0.890625 0 C 0.765625 0 0.703125 -0.0546875 0.703125 -0.171875 L 0.703125 -0.921875 C 0.703125 -1.035156 0.765625 -1.09375 0.890625 -1.09375 L 2.015625 -1.09375 L 2.015625 -9.4375 L 0.890625 -9.4375 C 0.765625 -9.4375 0.703125 -9.492188 0.703125 -9.609375 L 0.703125 -10.359375 C 0.703125 -10.472656 0.765625 -10.53125 0.890625 -10.53125 L 4.40625 -10.53125 C 4.53125 -10.53125 4.59375 -10.46875 4.59375 -10.34375 L 4.59375 -9.625 C 4.59375 -9.5 4.53125 -9.4375 4.40625 -9.4375 L 3.28125 -9.4375 L 3.28125 -1.09375 L 7.953125 -1.09375 L 7.953125 -2.53125 C 7.953125 -2.65625 8.015625 -2.71875 8.140625 -2.71875 L 8.9375 -2.71875 C 9.050781 -2.71875 9.109375 -2.65625 9.109375 -2.53125 L 9.109375 -0.1875 C 9.109375 -0.0625 9.046875 0 8.921875 0 Z M 8.921875 0 "/></g></g></g><g fill="#000000" fill-opacity="1"><g transform="translate(144.995966, 251.383657)"><g><path d="M 8.921875 0 L 0.890625 0 C 0.765625 0 0.703125 -0.0546875 0.703125 -0.171875 L 0.703125 -0.921875 C 0.703125 -1.035156 0.765625 -1.09375 0.890625 -1.09375 L 2.015625 -1.09375 L 2.015625 -9.4375 L 0.890625 -9.4375 C 0.765625 -9.4375 0.703125 -9.492188 0.703125 -9.609375 L 0.703125 -10.359375 C 0.703125 -10.472656 0.765625 -10.53125 0.890625 -10.53125 L 4.40625 -10.53125 C 4.53125 -10.53125 4.59375 -10.46875 4.59375 -10.34375 L 4.59375 -9.625 C 4.59375 -9.5 4.53125 -9.4375 4.40625 -9.4375 L 3.28125 -9.4375 L 3.28125 -1.09375 L 7.953125 -1.09375 L 7.953125 -2.53125 C 7.953125 -2.65625 8.015625 -2.71875 8.140625 -2.71875 L 8.9375 -2.71875 C 9.050781 -2.71875 9.109375 -2.65625 9.109375 -2.53125 L 9.109375 -0.1875 C 9.109375 -0.0625 9.046875 0 8.921875 0 Z M 8.921875 0 "/></g></g></g><g fill="#000000" fill-opacity="1"><g transform="translate(155.560578, 251.383657)"><g><path d="M 11.265625 0 L 7.953125 0 C 7.835938 0 7.78125 -0.0546875 7.78125 -0.171875 L 7.78125 -0.921875 C 7.78125 -1.035156 7.835938 -1.09375 7.953125 -1.09375 L 8.984375 -1.09375 L 8.03125 -3.640625 L 3.9375 -3.640625 L 2.984375 -1.09375 L 4 -1.09375 C 4.125 -1.09375 4.1875 -1.035156 4.1875 -0.921875 L 4.1875 -0.171875 C 4.1875 -0.0546875 4.125 0 4 0 L 0.703125 0 C 0.585938 0 0.53125 -0.0546875 0.53125 -0.171875 L 0.53125 -0.921875 C 0.53125 -1.035156 0.585938 -1.09375 0.703125 -1.09375 L 1.6875 -1.09375 L 4.84375 -9.4375 L 4.046875 -9.4375 C 3.921875 -9.4375 3.859375 -9.492188 3.859375 -9.609375 L 3.859375 -10.359375 C 3.859375 -10.472656 3.921875 -10.53125 4.046875 -10.53125 L 6.046875 -10.53125 C 6.273438 -10.53125 6.453125 -10.476562 6.578125 -10.375 C 6.703125 -10.28125 6.804688 -10.125 6.890625 -9.90625 L 10.265625 -1.09375 L 11.265625 -1.09375 C 11.378906 -1.09375 11.4375 -1.035156 11.4375 -0.921875 L 11.4375 -0.171875 C 11.4375 -0.0546875 11.378906 0 11.265625 0 Z M 7.625 -4.65625 L 6 -9.015625 L 5.953125 -9.015625 L 4.3125 -4.65625 Z M 7.625 -4.65625 "/></g></g></g><g fill="#000000" fill-opacity="1"><g transform="translate(168.634293, 251.383657)"><g><path d="M 5.640625 0 L 0.890625 0 C 0.765625 0 0.703125 -0.0546875 0.703125 -0.171875 L 0.703125 -0.921875 C 0.703125 -1.035156 0.765625 -1.09375 0.890625 -1.09375 L 2.015625 -1.09375 L 2.015625 -9.4375 L 0.890625 -9.4375 C 0.765625 -9.4375 0.703125 -9.492188 0.703125 -9.609375 L 0.703125 -10.359375 C 0.703125 -10.472656 0.765625 -10.53125 0.890625 -10.53125 L 5.625 -10.53125 C 6.601562 -10.53125 7.363281 -10.269531 7.90625 -9.75 C 8.445312 -9.238281 8.71875 -8.5625 8.71875 -7.71875 C 8.71875 -6.726562 8.28125 -5.988281 7.40625 -5.5 C 8.65625 -5.132812 9.28125 -4.300781 9.28125 -3 C 9.28125 -2.082031 8.972656 -1.351562 8.359375 -0.8125 C 7.753906 -0.269531 6.847656 0 5.640625 0 Z M 3.28125 -1.09375 L 5.53125 -1.09375 C 6.300781 -1.09375 6.90625 -1.253906 7.34375 -1.578125 C 7.78125 -1.910156 8 -2.421875 8 -3.109375 C 8 -4.328125 7.207031 -4.9375 5.625 -4.9375 L 3.28125 -4.9375 Z M 3.28125 -5.90625 L 5.53125 -5.90625 C 6.039062 -5.914062 6.484375 -6.0625 6.859375 -6.34375 C 7.234375 -6.632812 7.421875 -7.082031 7.421875 -7.6875 C 7.421875 -8.289062 7.222656 -8.734375 6.828125 -9.015625 C 6.429688 -9.296875 5.945312 -9.4375 5.375 -9.4375 L 3.28125 -9.4375 Z M 3.28125 -5.90625 "/></g></g></g><g fill="#000000" fill-opacity="1"><g transform="translate(179.360311, 251.383657)"><g><path d="M 9.609375 0 L 8.328125 0 C 7.984375 0 7.691406 -0.234375 7.453125 -0.703125 L 6.078125 -3.5 C 5.953125 -3.75 5.820312 -3.929688 5.6875 -4.046875 C 5.5625 -4.160156 5.382812 -4.222656 5.15625 -4.234375 L 3.28125 -4.234375 L 3.28125 -1.09375 L 4.609375 -1.09375 C 4.722656 -1.09375 4.78125 -1.035156 4.78125 -0.921875 L 4.78125 -0.171875 C 4.78125 -0.0546875 4.722656 0 4.609375 0 L 0.890625 0 C 0.765625 0 0.703125 -0.0546875 0.703125 -0.171875 L 0.703125 -0.921875 C 0.703125 -1.035156 0.765625 -1.09375 0.890625 -1.09375 L 2.015625 -1.09375 L 2.015625 -9.4375 L 0.890625 -9.4375 C 0.765625 -9.4375 0.703125 -9.492188 0.703125 -9.609375 L 0.703125 -10.359375 C 0.703125 -10.472656 0.765625 -10.53125 0.890625 -10.53125 L 5.40625 -10.53125 C 6.457031 -10.53125 7.3125 -10.253906 7.96875 -9.703125 C 8.625 -9.148438 8.953125 -8.367188 8.953125 -7.359375 C 8.953125 -5.828125 8.234375 -4.867188 6.796875 -4.484375 C 6.984375 -4.335938 7.210938 -4.007812 7.484375 -3.5 L 8.71875 -1.09375 L 9.609375 -1.09375 C 9.722656 -1.09375 9.78125 -1.035156 9.78125 -0.921875 L 9.78125 -0.171875 C 9.78125 -0.0546875 9.722656 0 9.609375 0 Z M 3.28125 -5.28125 L 5.171875 -5.28125 C 6.828125 -5.28125 7.65625 -5.960938 7.65625 -7.328125 C 7.65625 -8.734375 6.828125 -9.4375 5.171875 -9.4375 L 3.28125 -9.4375 Z M 3.28125 -5.28125 "/></g></g></g><g fill="#000000" fill-opacity="1"><g transform="translate(190.585223, 251.383657)"><g><path d="M 11.265625 0 L 7.953125 0 C 7.835938 0 7.78125 -0.0546875 7.78125 -0.171875 L 7.78125 -0.921875 C 7.78125 -1.035156 7.835938 -1.09375 7.953125 -1.09375 L 8.984375 -1.09375 L 8.03125 -3.640625 L 3.9375 -3.640625 L 2.984375 -1.09375 L 4 -1.09375 C 4.125 -1.09375 4.1875 -1.035156 4.1875 -0.921875 L 4.1875 -0.171875 C 4.1875 -0.0546875 4.125 0 4 0 L 0.703125 0 C 0.585938 0 0.53125 -0.0546875 0.53125 -0.171875 L 0.53125 -0.921875 C 0.53125 -1.035156 0.585938 -1.09375 0.703125 -1.09375 L 1.6875 -1.09375 L 4.84375 -9.4375 L 4.046875 -9.4375 C 3.921875 -9.4375 3.859375 -9.492188 3.859375 -9.609375 L 3.859375 -10.359375 C 3.859375 -10.472656 3.921875 -10.53125 4.046875 -10.53125 L 6.046875 -10.53125 C 6.273438 -10.53125 6.453125 -10.476562 6.578125 -10.375 C 6.703125 -10.28125 6.804688 -10.125 6.890625 -9.90625 L 10.265625 -1.09375 L 11.265625 -1.09375 C 11.378906 -1.09375 11.4375 -1.035156 11.4375 -0.921875 L 11.4375 -0.171875 C 11.4375 -0.0546875 11.378906 0 11.265625 0 Z M 7.625 -4.65625 L 6 -9.015625 L 5.953125 -9.015625 L 4.3125 -4.65625 Z M 7.625 -4.65625 "/></g></g></g><g fill="#000000" fill-opacity="1"><g transform="translate(203.658938, 251.383657)"><g><path d="M 7.015625 0 L 3.59375 0 C 3.46875 0 3.40625 -0.0625 3.40625 -0.1875 L 3.40625 -0.90625 C 3.40625 -1.03125 3.46875 -1.09375 3.59375 -1.09375 L 4.703125 -1.09375 L 4.703125 -9.4375 L 1.9375 -9.4375 L 1.9375 -7.875 C 1.9375 -7.738281 1.867188 -7.671875 1.734375 -7.671875 L 0.90625 -7.671875 C 0.769531 -7.671875 0.703125 -7.738281 0.703125 -7.875 L 0.703125 -10.34375 C 0.703125 -10.46875 0.769531 -10.53125 0.90625 -10.53125 L 9.75 -10.53125 C 9.894531 -10.53125 9.96875 -10.46875 9.96875 -10.34375 L 9.96875 -7.875 C 9.96875 -7.738281 9.894531 -7.671875 9.75 -7.671875 L 8.921875 -7.671875 C 8.796875 -7.671875 8.734375 -7.738281 8.734375 -7.875 L 8.734375 -9.4375 L 5.984375 -9.4375 L 5.984375 -1.09375 L 7.015625 -1.09375 C 7.148438 -1.09375 7.21875 -1.03125 7.21875 -0.90625 L 7.21875 -0.1875 C 7.21875 -0.0625 7.148438 0 7.015625 0 Z M 7.015625 0 "/></g></g></g><g fill="#000000" fill-opacity="1"><g transform="translate(215.059918, 251.383657)"><g><path d="M 4.421875 0 L 0.890625 0 C 0.765625 0 0.703125 -0.0546875 0.703125 -0.171875 L 0.703125 -0.921875 C 0.703125 -1.035156 0.765625 -1.09375 0.890625 -1.09375 L 2.015625 -1.09375 L 2.015625 -9.4375 L 0.890625 -9.4375 C 0.765625 -9.4375 0.703125 -9.492188 0.703125 -9.609375 L 0.703125 -10.359375 C 0.703125 -10.472656 0.765625 -10.53125 0.890625 -10.53125 L 4.421875 -10.53125 C 4.546875 -10.53125 4.609375 -10.472656 4.609375 -10.359375 L 4.609375 -9.609375 C 4.609375 -9.492188 4.546875 -9.4375 4.421875 -9.4375 L 3.28125 -9.4375 L 3.28125 -1.09375 L 4.421875 -1.09375 C 4.546875 -1.09375 4.609375 -1.035156 4.609375 -0.921875 L 4.609375 -0.171875 C 4.609375 -0.0546875 4.546875 0 4.421875 0 Z M 4.421875 0 "/></g></g></g><g fill="#000000" fill-opacity="1"><g transform="translate(221.105234, 251.383657)"><g><path d="M 10.921875 -5.3125 C 10.921875 -3.707031 10.4375 -2.398438 9.46875 -1.390625 C 8.507812 -0.390625 7.296875 0.109375 5.828125 0.109375 C 4.367188 0.109375 3.148438 -0.394531 2.171875 -1.40625 C 1.191406 -2.425781 0.703125 -3.734375 0.703125 -5.328125 C 0.703125 -6.929688 1.207031 -8.210938 2.21875 -9.171875 C 3.226562 -10.140625 4.429688 -10.625 5.828125 -10.625 C 7.222656 -10.625 8.421875 -10.140625 9.421875 -9.171875 C 10.421875 -8.210938 10.921875 -6.925781 10.921875 -5.3125 Z M 3.203125 -2.203125 C 3.953125 -1.453125 4.828125 -1.078125 5.828125 -1.078125 C 6.828125 -1.078125 7.695312 -1.453125 8.4375 -2.203125 C 9.175781 -2.953125 9.546875 -3.976562 9.546875 -5.28125 C 9.546875 -6.59375 9.164062 -7.617188 8.40625 -8.359375 C 7.65625 -9.097656 6.796875 -9.46875 5.828125 -9.46875 C 4.859375 -9.46875 3.988281 -9.097656 3.21875 -8.359375 C 2.457031 -7.617188 2.078125 -6.59375 2.078125 -5.28125 C 2.078125 -3.976562 2.453125 -2.953125 3.203125 -2.203125 Z M 3.203125 -2.203125 "/></g></g></g><g fill="#000000" fill-opacity="1"><g transform="translate(233.474635, 251.383657)"><g><path d="M 9.828125 0 L 9.03125 0 C 8.851562 0 8.707031 -0.0351562 8.59375 -0.109375 C 8.488281 -0.179688 8.390625 -0.296875 8.296875 -0.453125 L 4.046875 -7.09375 L 3.3125 -8.3125 L 3.28125 -8.3125 L 3.28125 -1.09375 L 4.421875 -1.09375 C 4.546875 -1.09375 4.609375 -1.035156 4.609375 -0.921875 L 4.609375 -0.171875 C 4.609375 -0.0546875 4.546875 0 4.421875 0 L 0.890625 0 C 0.765625 0 0.703125 -0.0546875 0.703125 -0.171875 L 0.703125 -0.921875 C 0.703125 -1.035156 0.765625 -1.09375 0.890625 -1.09375 L 2.015625 -1.09375 L 2.015625 -9.4375 L 0.890625 -9.4375 C 0.765625 -9.4375 0.703125 -9.492188 0.703125 -9.609375 L 0.703125 -10.359375 C 0.703125 -10.472656 0.765625 -10.53125 0.890625 -10.53125 L 2.953125 -10.53125 C 3.234375 -10.53125 3.484375 -10.363281 3.703125 -10.03125 L 7.875 -3.484375 L 8.71875 -2.0625 L 8.75 -2.0625 L 8.75 -9.4375 L 7.609375 -9.4375 C 7.492188 -9.4375 7.4375 -9.492188 7.4375 -9.609375 L 7.4375 -10.359375 C 7.4375 -10.472656 7.492188 -10.53125 7.609375 -10.53125 L 11.15625 -10.53125 C 11.269531 -10.53125 11.328125 -10.472656 11.328125 -10.359375 L 11.328125 -9.609375 C 11.328125 -9.492188 11.269531 -9.4375 11.15625 -9.4375 L 10.015625 -9.4375 L 10.015625 -0.171875 C 10.015625 -0.0546875 9.953125 0 9.828125 0 Z M 9.828125 0 "/></g></g></g><g fill="#000000" fill-opacity="1"><g transform="translate(246.240214, 251.383657)"><g/></g></g><g fill="#000000" fill-opacity="1"><g transform="translate(251.56654, 251.383657)"><g><path d="M 7.015625 0 L 3.59375 0 C 3.46875 0 3.40625 -0.0625 3.40625 -0.1875 L 3.40625 -0.90625 C 3.40625 -1.03125 3.46875 -1.09375 3.59375 -1.09375 L 4.703125 -1.09375 L 4.703125 -9.4375 L 1.9375 -9.4375 L 1.9375 -7.875 C 1.9375 -7.738281 1.867188 -7.671875 1.734375 -7.671875 L 0.90625 -7.671875 C 0.769531 -7.671875 0.703125 -7.738281 0.703125 -7.875 L 0.703125 -10.34375 C 0.703125 -10.46875 0.769531 -10.53125 0.90625 -10.53125 L 9.75 -10.53125 C 9.894531 -10.53125 9.96875 -10.46875 9.96875 -10.34375 L 9.96875 -7.875 C 9.96875 -7.738281 9.894531 -7.671875 9.75 -7.671875 L 8.921875 -7.671875 C 8.796875 -7.671875 8.734375 -7.738281 8.734375 -7.875 L 8.734375 -9.4375 L 5.984375 -9.4375 L 5.984375 -1.09375 L 7.015625 -1.09375 C 7.148438 -1.09375 7.21875 -1.03125 7.21875 -0.90625 L 7.21875 -0.1875 C 7.21875 -0.0625 7.148438 0 7.015625 0 Z M 7.015625 0 "/></g></g></g><g fill="#000000" fill-opacity="1"><g transform="translate(262.96752, 251.383657)"><g><path d="M 10.921875 -5.3125 C 10.921875 -3.707031 10.4375 -2.398438 9.46875 -1.390625 C 8.507812 -0.390625 7.296875 0.109375 5.828125 0.109375 C 4.367188 0.109375 3.148438 -0.394531 2.171875 -1.40625 C 1.191406 -2.425781 0.703125 -3.734375 0.703125 -5.328125 C 0.703125 -6.929688 1.207031 -8.210938 2.21875 -9.171875 C 3.226562 -10.140625 4.429688 -10.625 5.828125 -10.625 C 7.222656 -10.625 8.421875 -10.140625 9.421875 -9.171875 C 10.421875 -8.210938 10.921875 -6.925781 10.921875 -5.3125 Z M 3.203125 -2.203125 C 3.953125 -1.453125 4.828125 -1.078125 5.828125 -1.078125 C 6.828125 -1.078125 7.695312 -1.453125 8.4375 -2.203125 C 9.175781 -2.953125 9.546875 -3.976562 9.546875 -5.28125 C 9.546875 -6.59375 9.164062 -7.617188 8.40625 -8.359375 C 7.65625 -9.097656 6.796875 -9.46875 5.828125 -9.46875 C 4.859375 -9.46875 3.988281 -9.097656 3.21875 -8.359375 C 2.457031 -7.617188 2.078125 -6.59375 2.078125 -5.28125 C 2.078125 -3.976562 2.453125 -2.953125 3.203125 -2.203125 Z M 3.203125 -2.203125 "/></g></g></g><g fill="#000000" fill-opacity="1"><g transform="translate(275.336936, 251.383657)"><g><path d="M 10.921875 -5.3125 C 10.921875 -3.707031 10.4375 -2.398438 9.46875 -1.390625 C 8.507812 -0.390625 7.296875 0.109375 5.828125 0.109375 C 4.367188 0.109375 3.148438 -0.394531 2.171875 -1.40625 C 1.191406 -2.425781 0.703125 -3.734375 0.703125 -5.328125 C 0.703125 -6.929688 1.207031 -8.210938 2.21875 -9.171875 C 3.226562 -10.140625 4.429688 -10.625 5.828125 -10.625 C 7.222656 -10.625 8.421875 -10.140625 9.421875 -9.171875 C 10.421875 -8.210938 10.921875 -6.925781 10.921875 -5.3125 Z M 3.203125 -2.203125 C 3.953125 -1.453125 4.828125 -1.078125 5.828125 -1.078125 C 6.828125 -1.078125 7.695312 -1.453125 8.4375 -2.203125 C 9.175781 -2.953125 9.546875 -3.976562 9.546875 -5.28125 C 9.546875 -6.59375 9.164062 -7.617188 8.40625 -8.359375 C 7.65625 -9.097656 6.796875 -9.46875 5.828125 -9.46875 C 4.859375 -9.46875 3.988281 -9.097656 3.21875 -8.359375 C 2.457031 -7.617188 2.078125 -6.59375 2.078125 -5.28125 C 2.078125 -3.976562 2.453125 -2.953125 3.203125 -2.203125 Z M 3.203125 -2.203125 "/></g></g></g><g fill="#000000" fill-opacity="1"><g transform="translate(287.706352, 251.383657)"><g><path d="M 8.921875 0 L 0.890625 0 C 0.765625 0 0.703125 -0.0546875 0.703125 -0.171875 L 0.703125 -0.921875 C 0.703125 -1.035156 0.765625 -1.09375 0.890625 -1.09375 L 2.015625 -1.09375 L 2.015625 -9.4375 L 0.890625 -9.4375 C 0.765625 -9.4375 0.703125 -9.492188 0.703125 -9.609375 L 0.703125 -10.359375 C 0.703125 -10.472656 0.765625 -10.53125 0.890625 -10.53125 L 4.40625 -10.53125 C 4.53125 -10.53125 4.59375 -10.46875 4.59375 -10.34375 L 4.59375 -9.625 C 4.59375 -9.5 4.53125 -9.4375 4.40625 -9.4375 L 3.28125 -9.4375 L 3.28125 -1.09375 L 7.953125 -1.09375 L 7.953125 -2.53125 C 7.953125 -2.65625 8.015625 -2.71875 8.140625 -2.71875 L 8.9375 -2.71875 C 9.050781 -2.71875 9.109375 -2.65625 9.109375 -2.53125 L 9.109375 -0.1875 C 9.109375 -0.0625 9.046875 0 8.921875 0 Z M 8.921875 0 "/></g></g></g></svg>