<svg width="880" height="880" viewBox="0 0 880 880" fill="none" xmlns="http://www.w3.org/2000/svg">
<rect x="40" y="40" width="800" height="800" rx="198" fill="#1D2125"/>
<path d="M583.03 200.893H500.947L497.61 185.927C496.464 180.713 491.823 177 486.471 177H394.01C388.658 177 384.035 180.713 382.871 185.927L379.551 200.893H297.451C267.419 200.893 243 225.281 243 255.264V648.629C243 678.612 267.419 703 297.451 703H583.032C613.064 703 637.5 678.612 637.5 648.629V255.264C637.499 225.281 613.062 200.893 583.03 200.893ZM601.906 648.628C601.906 659.013 593.442 667.464 583.03 667.464H297.449C287.056 667.464 278.592 659.013 278.592 648.628V255.264C278.592 244.878 287.056 236.429 297.449 236.429H371.642L369.748 244.931C368.983 248.305 369.818 251.845 371.973 254.536C374.144 257.234 377.43 258.804 380.887 258.804H499.607C503.067 258.804 506.351 257.234 508.506 254.536C510.679 251.837 511.513 248.306 510.749 244.931L508.855 236.429H583.03C593.442 236.429 601.906 244.88 601.906 255.264V648.628Z" fill="#E65100"/>
<path d="M368.01 387.533H416.412L404.908 379.69C388.674 368.63 384.504 346.514 395.591 330.308C406.663 314.119 428.822 309.929 445.054 321.007L446.95 322.3V308.74C446.95 299.951 439.806 292.821 431.011 292.821H368.01C359.217 292.821 352.073 299.952 352.073 308.74V371.613C352.073 380.403 359.217 387.533 368.01 387.533Z" fill="#E65100"/>
<path d="M516.208 300.255L460.419 352.986L435.01 335.679C426.928 330.135 415.839 332.234 410.278 340.329C404.734 348.431 406.82 359.485 414.954 365.02L452.199 390.413C455.24 392.496 458.733 393.51 462.227 393.51C466.659 393.51 471.055 391.863 474.463 388.643L540.679 326.058C547.821 319.317 548.115 308.064 541.373 300.941C534.595 293.818 523.349 293.514 516.208 300.255Z" fill="#E65100"/>
<path d="M368.01 509.592H416.43L404.908 501.741C388.674 490.678 384.504 468.564 395.591 452.359C406.663 436.16 428.822 431.97 445.054 443.057L446.95 444.351V430.791C446.95 422.003 439.806 414.871 431.011 414.871H368.01C359.217 414.871 352.073 422.003 352.073 430.791V493.673C352.073 502.461 359.217 509.592 368.01 509.592Z" fill="#E65100"/>
<path d="M516.208 422.314L460.419 475.036L435.01 457.729C426.928 452.175 415.839 454.267 410.278 462.379C404.734 470.483 406.82 481.534 414.954 487.071L452.199 512.464C455.24 514.547 458.733 515.561 462.227 515.561C466.659 515.561 471.055 513.912 474.463 510.694L540.679 448.116C547.821 441.375 548.115 430.132 541.373 423C534.595 415.876 523.349 415.581 516.208 422.314Z" fill="#E65100"/>
<path d="M431.011 536.929H368.01C359.217 536.929 352.073 544.061 352.073 552.848V615.721C352.073 624.509 359.217 631.641 368.01 631.641H431.011C439.806 631.641 446.95 624.509 446.95 615.721V552.848C446.95 544.061 439.806 536.929 431.011 536.929Z" fill="#E65100"/>
</svg>
