<svg width="880" height="880" viewBox="0 0 880 880" fill="none" xmlns="http://www.w3.org/2000/svg">
<rect x="40" y="40" width="800" height="800" rx="400" fill="white"/>
<path d="M602.867 167.254H509.236L505.429 150.183C504.122 144.235 498.828 140 492.724 140H387.255C381.15 140 375.877 144.235 374.549 150.183L370.761 167.254H277.111C242.854 167.254 215 195.073 215 229.275V677.98C215 712.181 242.854 740 277.111 740H602.869C637.126 740 665 712.181 665 677.98V229.275C664.999 195.073 637.124 167.254 602.867 167.254ZM624.398 677.978C624.398 689.825 614.743 699.464 602.867 699.464H277.11C265.254 699.464 255.599 689.825 255.599 677.978V229.275C255.599 217.428 265.254 207.79 277.11 207.79H361.74L359.58 217.488C358.706 221.337 359.659 225.375 362.117 228.444C364.594 231.522 368.342 233.312 372.285 233.312H507.708C511.654 233.312 515.401 231.522 517.858 228.444C520.337 225.366 521.288 221.338 520.417 217.488L518.257 207.79H602.867C614.743 207.79 624.398 217.429 624.398 229.275V677.978Z" fill="#003049"/>
<path d="M357.597 380.151H412.808L399.686 371.206C381.168 358.589 376.411 333.361 389.058 314.876C401.688 296.41 426.964 291.63 445.48 304.267L447.642 305.742V290.274C447.642 280.249 439.494 272.115 429.461 272.115H357.597C347.567 272.115 339.418 280.25 339.418 290.274V361.992C339.418 372.019 347.567 380.151 357.597 380.151Z" fill="#003049"/>
<path d="M526.644 280.595L463.006 340.745L434.022 321.003C424.804 314.678 412.155 317.073 405.811 326.307C399.487 335.549 401.867 348.157 411.145 354.471L453.63 383.437C457.099 385.813 461.084 386.97 465.069 386.97C470.124 386.97 475.139 385.091 479.026 381.418L554.558 310.028C562.705 302.339 563.041 289.503 555.349 281.378C547.618 273.253 534.79 272.906 526.644 280.595Z" fill="#003049"/>
<path d="M357.597 519.383H412.828L399.686 510.427C381.168 497.808 376.411 472.583 389.058 454.097C401.688 435.62 426.964 430.84 445.48 443.487L447.642 444.963V429.495C447.642 419.471 439.494 411.336 429.461 411.336H357.597C347.567 411.336 339.418 419.471 339.418 429.495V501.224C339.418 511.248 347.567 519.383 357.597 519.383Z" fill="#003049"/>
<path d="M526.644 419.826L463.006 479.965L434.022 460.223C424.804 453.888 412.155 456.274 405.811 465.527C399.487 474.771 401.867 487.377 411.145 493.693L453.63 522.659C457.099 525.034 461.084 526.191 465.069 526.191C470.124 526.191 475.139 524.31 479.026 520.64L554.558 449.258C562.705 441.569 563.041 428.744 555.349 420.608C547.618 412.482 534.79 412.146 526.644 419.826Z" fill="#003049"/>
<path d="M429.461 550.565H357.597C347.567 550.565 339.418 558.701 339.418 568.725V640.443C339.418 650.467 347.567 658.602 357.597 658.602H429.461C439.494 658.602 447.642 650.467 447.642 640.443V568.725C447.642 558.701 439.494 550.565 429.461 550.565Z" fill="#003049"/>
</svg>
